<svg width="726" height="310" viewBox="0 0 726 310" fill="none" xmlns="http://www.w3.org/2000/svg">
<circle cx="366" cy="50" r="50" fill="#E90848"/>
<path d="M364.632 28.2H370.008L369.048 59.56H365.528L364.632 28.2ZM367.32 73.32C366.381 73.32 365.571 73 364.888 72.36C364.248 71.6773 363.928 70.888 363.928 69.992C363.928 69.0533 364.248 68.2853 364.888 67.688C365.528 67.048 366.339 66.728 367.32 66.728C368.259 66.728 369.048 67.048 369.688 67.688C370.328 68.2853 370.648 69.0533 370.648 69.992C370.648 70.888 370.328 71.6773 369.688 72.36C369.048 73 368.259 73.32 367.32 73.32Z" fill="black"/>
<path d="M726 229H0V310H726V229Z" fill="black"/>
<path d="M84.1739 229H0V238H84.1739V229Z" fill="#E90848"/>
<path d="M105.217 229H94.6956V238H105.217V229Z" fill="#E90848"/>
<path d="M126.261 229H115.739V238H126.261V229Z" fill="#E90848"/>
<path d="M147.304 229H136.783V238H147.304V229Z" fill="#E90848"/>
<path d="M231.478 229H178.87V238H231.478V229Z" fill="#E90848"/>
<path d="M252.522 229H242V238H252.522V229Z" fill="#E90848"/>
<path d="M273.565 229H263.043V238H273.565V229Z" fill="#E90848"/>
<path d="M336.696 229H284.087V238H336.696V229Z" fill="#E90848"/>
<path d="M378.783 229H357.739V238H378.783V229Z" fill="#E90848"/>
<path d="M399.826 229H389.304V238H399.826V229Z" fill="#E90848"/>
<path d="M420.87 229H410.348V238H420.87V229Z" fill="#E90848"/>
<path d="M494.522 229H473.478V238H494.522V229Z" fill="#E90848"/>
<path d="M547.13 229H536.609V238H547.13V229Z" fill="#E90848"/>
<path d="M610.261 229H589.217V238H610.261V229Z" fill="#E90848"/>
<path d="M662.87 229H641.826V238H662.87V229Z" fill="#E90848"/>
<path d="M694.435 229H683.913V238H694.435V229Z" fill="#E90848"/>
<path d="M726 229H715.478V238H726V229Z" fill="#E90848"/>
<path d="M84.1739 238H0V247H84.1739V238Z" fill="#E90848"/>
<path d="M105.217 238H94.6956V247H105.217V238Z" fill="#E90848"/>
<path d="M126.261 238H115.739V247H126.261V238Z" fill="#E90848"/>
<path d="M147.304 238H136.783V247H147.304V238Z" fill="#E90848"/>
<path d="M220.957 238H178.87V247H220.957V238Z" fill="#E90848"/>
<path d="M242 238H231.478V247H242V238Z" fill="#E90848"/>
<path d="M263.043 238H252.522V247H263.043V238Z" fill="#E90848"/>
<path d="M315.652 238H305.13V247H315.652V238Z" fill="#E90848"/>
<path d="M399.826 238H357.739V247H399.826V238Z" fill="#E90848"/>
<path d="M420.87 238H410.348V247H420.87V238Z" fill="#E90848"/>
<path d="M462.957 238H441.913V247H462.957V238Z" fill="#E90848"/>
<path d="M526.087 238H505.043V247H526.087V238Z" fill="#E90848"/>
<path d="M547.13 238H536.609V247H547.13V238Z" fill="#E90848"/>
<path d="M599.739 238H578.696V247H599.739V238Z" fill="#E90848"/>
<path d="M662.87 238H610.261V247H662.87V238Z" fill="#E90848"/>
<path d="M694.435 238H683.913V247H694.435V238Z" fill="#E90848"/>
<path d="M726 238H715.478V247H726V238Z" fill="#E90848"/>
<path d="M84.1739 247H0V256H84.1739V247Z" fill="#E90848"/>
<path d="M105.217 247H94.6956V256H105.217V247Z" fill="#E90848"/>
<path d="M126.261 247H115.739V256H126.261V247Z" fill="#E90848"/>
<path d="M147.304 247H136.783V256H147.304V247Z" fill="#E90848"/>
<path d="M210.435 247H178.87V256H210.435V247Z" fill="#E90848"/>
<path d="M231.478 247H220.957V256H231.478V247Z" fill="#E90848"/>
<path d="M252.522 247H242V256H252.522V247Z" fill="#E90848"/>
<path d="M326.174 247H263.043V256H326.174V247Z" fill="#E90848"/>
<path d="M368.261 247H357.739V256H368.261V247Z" fill="#E90848"/>
<path d="M399.826 247H389.304V256H399.826V247Z" fill="#E90848"/>
<path d="M420.87 247H410.348V256H420.87V247Z" fill="#E90848"/>
<path d="M505.043 247H462.957V256H505.043V247Z" fill="#E90848"/>
<path d="M547.13 247H536.609V256H547.13V247Z" fill="#E90848"/>
<path d="M599.739 247H578.696V256H599.739V247Z" fill="#E90848"/>
<path d="M620.783 247H610.261V256H620.783V247Z" fill="#E90848"/>
<path d="M662.87 247H631.304V256H662.87V247Z" fill="#E90848"/>
<path d="M726 247H715.478V256H726V247Z" fill="#E90848"/>
<path d="M84.1739 256H0V265H84.1739V256Z" fill="#E90848"/>
<path d="M105.217 256H94.6956V265H105.217V256Z" fill="#E90848"/>
<path d="M126.261 256H115.739V265H126.261V256Z" fill="#E90848"/>
<path d="M147.304 256H136.783V265H147.304V256Z" fill="#E90848"/>
<path d="M199.913 256H178.87V265H199.913V256Z" fill="#E90848"/>
<path d="M220.957 256H210.435V265H220.957V256Z" fill="#E90848"/>
<path d="M273.565 256H231.478V265H273.565V256Z" fill="#E90848"/>
<path d="M347.217 256H294.609V265H347.217V256Z" fill="#E90848"/>
<path d="M399.826 256H357.739V265H399.826V256Z" fill="#E90848"/>
<path d="M441.913 256H431.391V265H441.913V256Z" fill="#E90848"/>
<path d="M473.478 256H462.957V265H473.478V256Z" fill="#E90848"/>
<path d="M526.087 256H484V265H526.087V256Z" fill="#E90848"/>
<path d="M547.13 256H536.609V265H547.13V256Z" fill="#E90848"/>
<path d="M610.261 256H589.217V265H610.261V256Z" fill="#E90848"/>
<path d="M641.826 256H620.783V265H641.826V256Z" fill="#E90848"/>
<path d="M673.391 256H662.87V265H673.391V256Z" fill="#E90848"/>
<path d="M726 256H715.478V265H726V256Z" fill="#E90848"/>
<path d="M84.1739 265H0V274H84.1739V265Z" fill="#E90848"/>
<path d="M105.217 265H94.6956V274H105.217V265Z" fill="#E90848"/>
<path d="M126.261 265H115.739V274H126.261V265Z" fill="#E90848"/>
<path d="M147.304 265H136.783V274H147.304V265Z" fill="#E90848"/>
<path d="M199.913 265H178.87V274H199.913V265Z" fill="#E90848"/>
<path d="M220.957 265H210.435V274H220.957V265Z" fill="#E90848"/>
<path d="M263.043 265H231.478V274H263.043V265Z" fill="#E90848"/>
<path d="M326.174 265H315.652V274H326.174V265Z" fill="#E90848"/>
<path d="M399.826 265H357.739V274H399.826V265Z" fill="#E90848"/>
<path d="M431.391 265H410.348V274H431.391V265Z" fill="#E90848"/>
<path d="M494.522 265H473.478V274H494.522V265Z" fill="#E90848"/>
<path d="M526.087 265H515.565V274H526.087V265Z" fill="#E90848"/>
<path d="M578.696 265H536.609V274H578.696V265Z" fill="#E90848"/>
<path d="M610.261 265H599.739V274H610.261V265Z" fill="#E90848"/>
<path d="M662.87 265H641.826V274H662.87V265Z" fill="#E90848"/>
<path d="M694.435 265H673.391V274H694.435V265Z" fill="#E90848"/>
<path d="M726 265H715.478V274H726V265Z" fill="#E90848"/>
<path d="M84.1739 274H0V283H84.1739V274Z" fill="#E90848"/>
<path d="M105.217 274H94.6956V283H105.217V274Z" fill="#E90848"/>
<path d="M126.261 274H115.739V283H126.261V274Z" fill="#E90848"/>
<path d="M147.304 274H136.783V283H147.304V274Z" fill="#E90848"/>
<path d="M220.957 274H178.87V283H220.957V274Z" fill="#E90848"/>
<path d="M242 274H231.478V283H242V274Z" fill="#E90848"/>
<path d="M294.609 274H252.522V283H294.609V274Z" fill="#E90848"/>
<path d="M315.652 274H305.13V283H315.652V274Z" fill="#E90848"/>
<path d="M368.261 274H357.739V283H368.261V274Z" fill="#E90848"/>
<path d="M441.913 274H399.826V283H441.913V274Z" fill="#E90848"/>
<path d="M484 274H452.435V283H484V274Z" fill="#E90848"/>
<path d="M526.087 274H494.522V283H526.087V274Z" fill="#E90848"/>
<path d="M589.217 274H536.609V283H589.217V274Z" fill="#E90848"/>
<path d="M620.783 274H599.739V283H620.783V274Z" fill="#E90848"/>
<path d="M683.913 274H641.826V283H683.913V274Z" fill="#E90848"/>
<path d="M704.957 274H694.435V283H704.957V274Z" fill="#E90848"/>
<path d="M726 274H715.478V283H726V274Z" fill="#E90848"/>
<path d="M84.1739 283H0V292H84.1739V283Z" fill="#E90848"/>
<path d="M105.217 283H94.6956V292H105.217V283Z" fill="#E90848"/>
<path d="M126.261 283H115.739V292H126.261V283Z" fill="#E90848"/>
<path d="M147.304 283H136.783V292H147.304V283Z" fill="#E90848"/>
<path d="M210.435 283H178.87V292H210.435V283Z" fill="#E90848"/>
<path d="M231.478 283H220.957V292H231.478V283Z" fill="#E90848"/>
<path d="M284.087 283H252.522V292H284.087V283Z" fill="#E90848"/>
<path d="M347.217 283H294.609V292H347.217V283Z" fill="#E90848"/>
<path d="M368.261 283H357.739V292H368.261V283Z" fill="#E90848"/>
<path d="M389.304 283H378.783V292H389.304V283Z" fill="#E90848"/>
<path d="M431.391 283H420.87V292H431.391V283Z" fill="#E90848"/>
<path d="M494.522 283H484V292H494.522V283Z" fill="#E90848"/>
<path d="M557.652 283H536.609V292H557.652V283Z" fill="#E90848"/>
<path d="M589.217 283H568.174V292H589.217V283Z" fill="#E90848"/>
<path d="M620.783 283H610.261V292H620.783V283Z" fill="#E90848"/>
<path d="M673.391 283H662.87V292H673.391V283Z" fill="#E90848"/>
<path d="M726 283H715.478V292H726V283Z" fill="#E90848"/>
<path d="M84.1739 292H0V301H84.1739V292Z" fill="#E90848"/>
<path d="M105.217 292H94.6956V301H105.217V292Z" fill="#E90848"/>
<path d="M126.261 292H115.739V301H126.261V292Z" fill="#E90848"/>
<path d="M147.304 292H136.783V301H147.304V292Z" fill="#E90848"/>
<path d="M242 292H178.87V301H242V292Z" fill="#E90848"/>
<path d="M263.043 292H252.522V301H263.043V292Z" fill="#E90848"/>
<path d="M294.609 292H284.087V301H294.609V292Z" fill="#E90848"/>
<path d="M336.696 292H305.13V301H336.696V292Z" fill="#E90848"/>
<path d="M368.261 292H357.739V301H368.261V292Z" fill="#E90848"/>
<path d="M389.304 292H378.783V301H389.304V292Z" fill="#E90848"/>
<path d="M484 292H431.391V301H484V292Z" fill="#E90848"/>
<path d="M515.565 292H494.522V301H515.565V292Z" fill="#E90848"/>
<path d="M578.696 292H536.609V301H578.696V292Z" fill="#E90848"/>
<path d="M631.304 292H620.783V301H631.304V292Z" fill="#E90848"/>
<path d="M652.348 292H641.826V301H652.348V292Z" fill="#E90848"/>
<path d="M673.391 292H662.87V301H673.391V292Z" fill="#E90848"/>
<path d="M726 292H715.478V301H726V292Z" fill="#E90848"/>
<path d="M84.1739 301H0V310H84.1739V301Z" fill="#E90848"/>
<path d="M105.217 301H94.6956V310H105.217V301Z" fill="#E90848"/>
<path d="M126.261 301H115.739V310H126.261V301Z" fill="#E90848"/>
<path d="M147.304 301H136.783V310H147.304V301Z" fill="#E90848"/>
<path d="M199.913 301H178.87V310H199.913V301Z" fill="#E90848"/>
<path d="M220.957 301H210.435V310H220.957V301Z" fill="#E90848"/>
<path d="M263.043 301H242V310H263.043V301Z" fill="#E90848"/>
<path d="M336.696 301H273.565V310H336.696V301Z" fill="#E90848"/>
<path d="M378.783 301H357.739V310H378.783V301Z" fill="#E90848"/>
<path d="M399.826 301H389.304V310H399.826V301Z" fill="#E90848"/>
<path d="M441.913 301H420.87V310H441.913V301Z" fill="#E90848"/>
<path d="M515.565 301H452.435V310H515.565V301Z" fill="#E90848"/>
<path d="M547.13 301H536.609V310H547.13V301Z" fill="#E90848"/>
<path d="M568.174 301H557.652V310H568.174V301Z" fill="#E90848"/>
<path d="M599.739 301H589.217V310H599.739V301Z" fill="#E90848"/>
<path d="M652.348 301H610.261V310H652.348V301Z" fill="#E90848"/>
<path d="M726 301H715.478V310H726V301Z" fill="#E90848"/>
<line x1="0.00138504" y1="215.5" x2="725.999" y2="217.511" stroke="#E90848"/>
<path d="M274.013 123.8C276.245 123.8 278.177 124.172 279.809 124.916C281.465 125.66 282.737 126.716 283.625 128.084C284.513 129.452 284.957 131.072 284.957 132.944C284.957 134.792 284.513 136.412 283.625 137.804C282.737 139.172 281.465 140.228 279.809 140.972C278.177 141.692 276.245 142.052 274.013 142.052H268.937V149H263.105V123.8H274.013ZM273.689 137.3C275.441 137.3 276.773 136.928 277.685 136.184C278.597 135.416 279.053 134.336 279.053 132.944C279.053 131.528 278.597 130.448 277.685 129.704C276.773 128.936 275.441 128.552 273.689 128.552H268.937V137.3H273.689ZM305.177 149L300.317 141.98H300.029H294.953V149H289.121V123.8H300.029C302.261 123.8 304.193 124.172 305.825 124.916C307.481 125.66 308.753 126.716 309.641 128.084C310.529 129.452 310.973 131.072 310.973 132.944C310.973 134.816 310.517 136.436 309.605 137.804C308.717 139.148 307.445 140.18 305.789 140.9L311.441 149H305.177ZM305.069 132.944C305.069 131.528 304.613 130.448 303.701 129.704C302.789 128.936 301.457 128.552 299.705 128.552H294.953V137.336H299.705C301.457 137.336 302.789 136.952 303.701 136.184C304.613 135.416 305.069 134.336 305.069 132.944ZM327.797 149.432C325.181 149.432 322.817 148.868 320.705 147.74C318.617 146.612 316.973 145.064 315.773 143.096C314.597 141.104 314.009 138.872 314.009 136.4C314.009 133.928 314.597 131.708 315.773 129.74C316.973 127.748 318.617 126.188 320.705 125.06C322.817 123.932 325.181 123.368 327.797 123.368C330.413 123.368 332.765 123.932 334.853 125.06C336.941 126.188 338.585 127.748 339.785 129.74C340.985 131.708 341.585 133.928 341.585 136.4C341.585 138.872 340.985 141.104 339.785 143.096C338.585 145.064 336.941 146.612 334.853 147.74C332.765 148.868 330.413 149.432 327.797 149.432ZM327.797 144.464C329.285 144.464 330.629 144.128 331.829 143.456C333.029 142.76 333.965 141.8 334.637 140.576C335.333 139.352 335.681 137.96 335.681 136.4C335.681 134.84 335.333 133.448 334.637 132.224C333.965 131 333.029 130.052 331.829 129.38C330.629 128.684 329.285 128.336 327.797 128.336C326.309 128.336 324.965 128.684 323.765 129.38C322.565 130.052 321.617 131 320.921 132.224C320.249 133.448 319.913 134.84 319.913 136.4C319.913 137.96 320.249 139.352 320.921 140.576C321.617 141.8 322.565 142.76 323.765 143.456C324.965 144.128 326.309 144.464 327.797 144.464ZM350.837 128.552H342.773V123.8H364.733V128.552H356.669V149H350.837V128.552ZM379.723 149.432C377.107 149.432 374.743 148.868 372.631 147.74C370.543 146.612 368.899 145.064 367.699 143.096C366.523 141.104 365.935 138.872 365.935 136.4C365.935 133.928 366.523 131.708 367.699 129.74C368.899 127.748 370.543 126.188 372.631 125.06C374.743 123.932 377.107 123.368 379.723 123.368C382.339 123.368 384.691 123.932 386.779 125.06C388.867 126.188 390.511 127.748 391.711 129.74C392.911 131.708 393.511 133.928 393.511 136.4C393.511 138.872 392.911 141.104 391.711 143.096C390.511 145.064 388.867 146.612 386.779 147.74C384.691 148.868 382.339 149.432 379.723 149.432ZM379.723 144.464C381.211 144.464 382.555 144.128 383.755 143.456C384.955 142.76 385.891 141.8 386.563 140.576C387.259 139.352 387.607 137.96 387.607 136.4C387.607 134.84 387.259 133.448 386.563 132.224C385.891 131 384.955 130.052 383.755 129.38C382.555 128.684 381.211 128.336 379.723 128.336C378.235 128.336 376.891 128.684 375.691 129.38C374.491 130.052 373.543 131 372.847 132.224C372.175 133.448 371.839 134.84 371.839 136.4C371.839 137.96 372.175 139.352 372.847 140.576C373.543 141.8 374.491 142.76 375.691 143.456C376.891 144.128 378.235 144.464 379.723 144.464ZM409.954 149.432C407.386 149.432 405.058 148.88 402.97 147.776C400.906 146.648 399.274 145.1 398.074 143.132C396.898 141.14 396.31 138.896 396.31 136.4C396.31 133.904 396.898 131.672 398.074 129.704C399.274 127.712 400.906 126.164 402.97 125.06C405.058 123.932 407.398 123.368 409.99 123.368C412.174 123.368 414.142 123.752 415.894 124.52C417.67 125.288 419.158 126.392 420.358 127.832L416.614 131.288C414.91 129.32 412.798 128.336 410.278 128.336C408.718 128.336 407.326 128.684 406.102 129.38C404.878 130.052 403.918 131 403.222 132.224C402.55 133.448 402.214 134.84 402.214 136.4C402.214 137.96 402.55 139.352 403.222 140.576C403.918 141.8 404.878 142.76 406.102 143.456C407.326 144.128 408.718 144.464 410.278 144.464C412.798 144.464 414.91 143.468 416.614 141.476L420.358 144.932C419.158 146.396 417.67 147.512 415.894 148.28C414.118 149.048 412.138 149.432 409.954 149.432ZM435.973 149.432C433.357 149.432 430.993 148.868 428.881 147.74C426.793 146.612 425.149 145.064 423.949 143.096C422.773 141.104 422.185 138.872 422.185 136.4C422.185 133.928 422.773 131.708 423.949 129.74C425.149 127.748 426.793 126.188 428.881 125.06C430.993 123.932 433.357 123.368 435.973 123.368C438.589 123.368 440.941 123.932 443.029 125.06C445.117 126.188 446.761 127.748 447.961 129.74C449.161 131.708 449.761 133.928 449.761 136.4C449.761 138.872 449.161 141.104 447.961 143.096C446.761 145.064 445.117 146.612 443.029 147.74C440.941 148.868 438.589 149.432 435.973 149.432ZM435.973 144.464C437.461 144.464 438.805 144.128 440.005 143.456C441.205 142.76 442.141 141.8 442.813 140.576C443.509 139.352 443.857 137.96 443.857 136.4C443.857 134.84 443.509 133.448 442.813 132.224C442.141 131 441.205 130.052 440.005 129.38C438.805 128.684 437.461 128.336 435.973 128.336C434.485 128.336 433.141 128.684 431.941 129.38C430.741 130.052 429.793 131 429.097 132.224C428.425 133.448 428.089 134.84 428.089 136.4C428.089 137.96 428.425 139.352 429.097 140.576C429.793 141.8 430.741 142.76 431.941 143.456C433.141 144.128 434.485 144.464 435.973 144.464ZM454.144 123.8H459.976V144.248H472.612V149H454.144V123.8ZM291.97 177.196C293.578 177.196 295.042 177.52 296.362 178.168C297.682 178.816 298.726 179.74 299.494 180.94C300.262 182.116 300.646 183.484 300.646 185.044C300.646 186.724 300.226 188.2 299.386 189.472C298.546 190.744 297.394 191.728 295.93 192.424C294.49 193.096 292.882 193.432 291.106 193.432C287.578 193.432 284.818 192.352 282.826 190.192C280.834 188.032 279.838 184.948 279.838 180.94C279.838 178.084 280.378 175.636 281.458 173.596C282.538 171.556 284.038 170.008 285.958 168.952C287.902 167.896 290.146 167.368 292.69 167.368C294.034 167.368 295.318 167.524 296.542 167.836C297.79 168.124 298.846 168.544 299.71 169.096L297.55 173.38C296.302 172.54 294.73 172.12 292.834 172.12C290.698 172.12 289.006 172.744 287.758 173.992C286.51 175.24 285.838 177.052 285.742 179.428C287.23 177.94 289.306 177.196 291.97 177.196ZM290.782 189.076C292.03 189.076 293.038 188.74 293.806 188.068C294.598 187.396 294.994 186.484 294.994 185.332C294.994 184.18 294.598 183.268 293.806 182.596C293.038 181.9 292.006 181.552 290.71 181.552C289.438 181.552 288.394 181.912 287.578 182.632C286.762 183.328 286.354 184.228 286.354 185.332C286.354 186.436 286.75 187.336 287.542 188.032C288.334 188.728 289.414 189.076 290.782 189.076ZM311.399 177.268C314.951 177.268 317.567 177.976 319.247 179.392C320.951 180.808 321.803 182.704 321.803 185.08C321.803 186.616 321.419 188.02 320.651 189.292C319.883 190.54 318.707 191.548 317.123 192.316C315.563 193.06 313.631 193.432 311.327 193.432C309.551 193.432 307.799 193.204 306.071 192.748C304.367 192.268 302.915 191.596 301.715 190.732L304.019 186.268C304.979 186.988 306.083 187.552 307.331 187.96C308.579 188.344 309.863 188.536 311.183 188.536C312.647 188.536 313.799 188.248 314.639 187.672C315.479 187.096 315.899 186.292 315.899 185.26C315.899 184.18 315.455 183.364 314.567 182.812C313.703 182.26 312.191 181.984 310.031 181.984H303.587L304.883 167.8H320.255V172.48H309.743L309.347 177.268H311.399ZM342.822 188.248V193H323.778V189.22L333.498 180.04C334.53 179.056 335.226 178.216 335.586 177.52C335.946 176.8 336.126 176.092 336.126 175.396C336.126 174.388 335.778 173.62 335.082 173.092C334.41 172.54 333.414 172.264 332.094 172.264C330.99 172.264 329.994 172.48 329.106 172.912C328.218 173.32 327.474 173.944 326.874 174.784L322.626 172.048C323.61 170.584 324.966 169.444 326.694 168.628C328.422 167.788 330.402 167.368 332.634 167.368C334.506 167.368 336.138 167.68 337.53 168.304C338.946 168.904 340.038 169.768 340.806 170.896C341.598 172 341.994 173.308 341.994 174.82C341.994 176.188 341.706 177.472 341.13 178.672C340.554 179.872 339.438 181.24 337.782 182.776L331.986 188.248H342.822ZM355.958 193.432C353.87 193.432 352.01 192.916 350.378 191.884C348.746 190.852 347.462 189.364 346.526 187.42C345.614 185.452 345.158 183.112 345.158 180.4C345.158 177.688 345.614 175.36 346.526 173.416C347.462 171.448 348.746 169.948 350.378 168.916C352.01 167.884 353.87 167.368 355.958 167.368C358.046 167.368 359.906 167.884 361.538 168.916C363.17 169.948 364.442 171.448 365.354 173.416C366.29 175.36 366.758 177.688 366.758 180.4C366.758 183.112 366.29 185.452 365.354 187.42C364.442 189.364 363.17 190.852 361.538 191.884C359.906 192.916 358.046 193.432 355.958 193.432ZM355.958 188.5C357.494 188.5 358.694 187.84 359.558 186.52C360.446 185.2 360.89 183.16 360.89 180.4C360.89 177.64 360.446 175.6 359.558 174.28C358.694 172.96 357.494 172.3 355.958 172.3C354.446 172.3 353.246 172.96 352.358 174.28C351.494 175.6 351.062 177.64 351.062 180.4C351.062 183.16 351.494 185.2 352.358 186.52C353.246 187.84 354.446 188.5 355.958 188.5ZM370.2 180.616H380.388V185.116H370.2V180.616ZM400.955 187.6H389.255L387.023 193H381.047L392.279 167.8H398.039L409.307 193H403.187L400.955 187.6ZM399.119 183.172L395.123 173.524L391.127 183.172H399.119ZM432.886 187.708H428.782V193H423.094V187.708H409.522V183.784L421.402 167.8H427.522L416.506 182.956H423.274V178.24H428.782V182.956H432.886V187.708ZM443.2 177.268C446.752 177.268 449.368 177.976 451.048 179.392C452.752 180.808 453.604 182.704 453.604 185.08C453.604 186.616 453.22 188.02 452.452 189.292C451.684 190.54 450.508 191.548 448.924 192.316C447.364 193.06 445.432 193.432 443.128 193.432C441.352 193.432 439.6 193.204 437.872 192.748C436.168 192.268 434.716 191.596 433.516 190.732L435.82 186.268C436.78 186.988 437.884 187.552 439.132 187.96C440.38 188.344 441.664 188.536 442.984 188.536C444.448 188.536 445.6 188.248 446.44 187.672C447.28 187.096 447.7 186.292 447.7 185.26C447.7 184.18 447.256 183.364 446.368 182.812C445.504 182.26 443.992 181.984 441.832 181.984H435.388L436.684 167.8H452.056V172.48H441.544L441.148 177.268H443.2Z" fill="#E90848"/>
</svg>
